<svg width="121" height="15" viewBox="0 0 121 15" fill="none" xmlns="http://www.w3.org/2000/svg">
<path d="M1.38308 11V0.818182H5.28081C6.01661 0.818182 6.62811 0.934185 7.11533 1.16619C7.60586 1.39489 7.9721 1.7081 8.21405 2.10582C8.45931 2.50355 8.58195 2.95431 8.58195 3.4581C8.58195 3.8724 8.5024 4.22704 8.34331 4.52202C8.18422 4.81368 7.97044 5.05066 7.70198 5.23295C7.43351 5.41525 7.13356 5.54616 6.80212 5.62571V5.72514C7.16339 5.74503 7.50974 5.85606 7.84118 6.05824C8.17593 6.2571 8.44937 6.53883 8.66149 6.90341C8.87361 7.26799 8.97968 7.70881 8.97968 8.22585C8.97968 8.75284 8.85207 9.2268 8.59686 9.64773C8.34165 10.0653 7.95718 10.3951 7.44345 10.6371C6.92972 10.879 6.28342 11 5.50453 11H1.38308ZM3.22754 9.45881H5.21121C5.88072 9.45881 6.36296 9.3312 6.65794 9.07599C6.95624 8.81747 7.10538 8.48603 7.10538 8.08168C7.10538 7.78007 7.03081 7.50829 6.88166 7.26634C6.73252 7.02107 6.52039 6.82884 6.2453 6.68963C5.9702 6.54711 5.64208 6.47585 5.26092 6.47585H3.22754V9.45881ZM3.22754 5.14844H5.05212C5.3703 5.14844 5.65699 5.09044 5.9122 4.97443C6.16741 4.85511 6.36793 4.68774 6.51377 4.4723C6.66291 4.25355 6.73749 3.99503 6.73749 3.69673C6.73749 3.30232 6.59828 2.97751 6.31987 2.7223C6.04478 2.46709 5.63545 2.33949 5.09189 2.33949H3.22754V5.14844ZM10.2247 11V3.36364H12.0244V11H10.2247ZM11.1295 2.27983C10.8445 2.27983 10.5992 2.18537 10.3937 1.99645C10.1883 1.80421 10.0855 1.57386 10.0855 1.3054C10.0855 1.03362 10.1883 0.803267 10.3937 0.614346C10.5992 0.422111 10.8445 0.325994 11.1295 0.325994C11.4179 0.325994 11.6632 0.422111 11.8653 0.614346C12.0708 0.803267 12.1736 1.03362 12.1736 1.3054C12.1736 1.57386 12.0708 1.80421 11.8653 1.99645C11.6632 2.18537 11.4179 2.27983 11.1295 2.27983ZM12.919 13.2173V9.51847H13.5255C13.6879 9.39252 13.8238 9.22183 13.9332 9.00639C14.0425 8.78764 14.132 8.53078 14.2016 8.2358C14.2746 7.9375 14.3342 7.6044 14.3806 7.23651C14.427 6.86529 14.4684 6.46591 14.5049 6.03835L14.7237 3.36364H20.2421V9.51847H21.4254V13.2173H19.6853V11H14.6888V13.2173H12.919ZM15.3749 9.51847H18.5219V4.81534H16.2847L16.1654 6.03835C16.0991 6.84706 16.0113 7.53977 15.9019 8.11648C15.7925 8.69318 15.6169 9.16051 15.3749 9.51847ZM27.734 6.43608V7.91264H23.6672V6.43608H27.734ZM24.224 3.36364V11H22.4889V3.36364H24.224ZM28.9122 3.36364V11H27.1821V3.36364H28.9122ZM33.784 11.1491C33.0383 11.1491 32.392 10.9851 31.8451 10.657C31.2982 10.3288 30.874 9.86979 30.5724 9.27983C30.2741 8.68987 30.1249 8.00047 30.1249 7.21165C30.1249 6.42282 30.2741 5.73177 30.5724 5.13849C30.874 4.54522 31.2982 4.08452 31.8451 3.75639C32.392 3.42827 33.0383 3.2642 33.784 3.2642C34.5298 3.2642 35.1761 3.42827 35.723 3.75639C36.2698 4.08452 36.6924 4.54522 36.9907 5.13849C37.2923 5.73177 37.4431 6.42282 37.4431 7.21165C37.4431 8.00047 37.2923 8.68987 36.9907 9.27983C36.6924 9.86979 36.2698 10.3288 35.723 10.657C35.1761 10.9851 34.5298 11.1491 33.784 11.1491ZM33.794 9.70739C34.1983 9.70739 34.5364 9.59635 34.8082 9.37429C35.08 9.14891 35.2821 8.8473 35.4147 8.46946C35.5506 8.09162 35.6185 7.67069 35.6185 7.20668C35.6185 6.73935 35.5506 6.31676 35.4147 5.93892C35.2821 5.55777 35.08 5.2545 34.8082 5.02912C34.5364 4.80374 34.1983 4.69105 33.794 4.69105C33.3797 4.69105 33.035 4.80374 32.7599 5.02912C32.4881 5.2545 32.2843 5.55777 32.1484 5.93892C32.0158 6.31676 31.9495 6.73935 31.9495 7.20668C31.9495 7.67069 32.0158 8.09162 32.1484 8.46946C32.2843 8.8473 32.4881 9.14891 32.7599 9.37429C33.035 9.59635 33.3797 9.70739 33.794 9.70739ZM38.6906 11V3.36364H41.8973C42.8022 3.36364 43.5164 3.54427 44.0401 3.90554C44.5671 4.26681 44.8306 4.7706 44.8306 5.4169C44.8306 5.84446 44.6814 6.19413 44.3831 6.46591C44.0881 6.73437 43.6854 6.91501 43.175 7.00781C43.5761 7.04096 43.9274 7.14205 44.229 7.31108C44.5339 7.48011 44.7726 7.70218 44.9449 7.97727C45.1173 8.25237 45.2034 8.56889 45.2034 8.92685C45.2034 9.34777 45.0924 9.71402 44.8703 10.0256C44.6516 10.3338 44.3317 10.5741 43.9108 10.7464C43.4932 10.9155 42.9861 11 42.3895 11H38.6906ZM40.376 9.5831H42.3895C42.7209 9.5831 42.9811 9.50521 43.17 9.34943C43.359 9.19034 43.4534 8.97491 43.4534 8.70312C43.4534 8.38826 43.359 8.14134 43.17 7.96236C42.9811 7.78007 42.7209 7.68892 42.3895 7.68892H40.376V9.5831ZM40.376 6.52557H41.9321C42.1774 6.52557 42.3879 6.49077 42.5635 6.42116C42.7392 6.34825 42.8734 6.24716 42.9662 6.1179C43.059 5.98532 43.1054 5.82789 43.1054 5.6456C43.1054 5.38376 42.9977 5.17827 42.7823 5.02912C42.5701 4.87997 42.2752 4.8054 41.8973 4.8054H40.376V6.52557ZM48.1438 8.56392L51.2013 3.36364H53.0507V11H51.3107V5.79474L48.2631 11H46.4087V3.36364H48.1438V8.56392ZM53.7638 4.8402V3.36364H60.4456V4.8402H57.9748V11H56.2347V4.8402H53.7638ZM63.3338 8.56392L66.3913 3.36364H68.2407V11H66.5007V5.79474L63.4531 11H61.5987V3.36364H63.3338V8.56392ZM73.0016 11V3.36364H79.4497V11H77.7147V4.8402H74.7218V11H73.0016ZM83.2179 11.1541C82.734 11.1541 82.2981 11.0679 81.9103 10.8956C81.5259 10.7199 81.2209 10.4614 80.9956 10.12C80.7735 9.77865 80.6625 9.35772 80.6625 8.85724C80.6625 8.42637 80.742 8.07008 80.9011 7.78835C81.0602 7.50663 81.2773 7.28125 81.5524 7.11222C81.8275 6.94318 82.1374 6.81558 82.4821 6.7294C82.8301 6.63991 83.1897 6.57528 83.5609 6.53551C84.0083 6.48911 84.3713 6.44768 84.6497 6.41122C84.9281 6.37145 85.1303 6.31179 85.2562 6.23224C85.3855 6.14938 85.4501 6.02178 85.4501 5.84943V5.8196C85.4501 5.44508 85.3391 5.15507 85.117 4.94957C84.8949 4.74408 84.5751 4.64134 84.1575 4.64134C83.7167 4.64134 83.367 4.73745 83.1085 4.92969C82.8533 5.12192 82.6809 5.34896 82.5914 5.6108L80.911 5.37216C81.0436 4.90814 81.2624 4.52036 81.5673 4.20881C81.8722 3.89394 82.2451 3.65862 82.6859 3.50284C83.1267 3.34375 83.6139 3.2642 84.1475 3.2642C84.5154 3.2642 84.8817 3.30729 85.2463 3.39347C85.6108 3.47964 85.9439 3.62216 86.2456 3.82102C86.5472 4.01657 86.7891 4.28338 86.9714 4.62145C87.157 4.95952 87.2498 5.3821 87.2498 5.8892V11H85.5197V9.95099H85.46C85.3507 10.1631 85.1965 10.362 84.9977 10.5476C84.8021 10.7299 84.5552 10.8774 84.2569 10.9901C83.9619 11.0994 83.6156 11.1541 83.2179 11.1541ZM83.6852 9.83168C84.0465 9.83168 84.3597 9.76042 84.6248 9.6179C84.89 9.47206 85.0938 9.27983 85.2363 9.04119C85.3822 8.80256 85.4551 8.54238 85.4551 8.26065V7.3608C85.3987 7.4072 85.3026 7.45028 85.1667 7.49006C85.0341 7.52983 84.885 7.56463 84.7193 7.59446C84.5536 7.62429 84.3895 7.6508 84.2271 7.67401C84.0647 7.69721 83.9238 7.71709 83.8045 7.73366C83.536 7.77012 83.2957 7.82978 83.0836 7.91264C82.8715 7.9955 82.7041 8.11151 82.5815 8.26065C82.4589 8.40649 82.3975 8.59541 82.3975 8.82741C82.3975 9.15885 82.5185 9.40909 82.7605 9.57812C83.0024 9.74716 83.3107 9.83168 83.6852 9.83168ZM88.7795 13.8636V3.36364H90.5494V4.62642H90.6538C90.7466 4.44081 90.8775 4.24361 91.0465 4.0348C91.2156 3.82268 91.4442 3.64205 91.7326 3.4929C92.021 3.34044 92.3889 3.2642 92.8363 3.2642C93.4263 3.2642 93.9582 3.41501 94.4322 3.71662C94.9094 4.01491 95.2873 4.45739 95.5657 5.04403C95.8474 5.62737 95.9883 6.34328 95.9883 7.19176C95.9883 8.0303 95.8507 8.7429 95.5756 9.32955C95.3005 9.91619 94.926 10.3636 94.4521 10.6719C93.9781 10.9801 93.4412 11.1342 92.8413 11.1342C92.4038 11.1342 92.0408 11.0613 91.7525 10.9155C91.4641 10.7696 91.2321 10.594 91.0565 10.3885C90.8841 10.1797 90.7499 9.98248 90.6538 9.79688H90.5792V13.8636H88.7795ZM90.5444 7.18182C90.5444 7.67566 90.614 8.10819 90.7532 8.4794C90.8957 8.85062 91.0996 9.14062 91.3647 9.34943C91.6332 9.55492 91.958 9.65767 92.3391 9.65767C92.7369 9.65767 93.07 9.55161 93.3384 9.33949C93.6069 9.12405 93.8091 8.83073 93.945 8.45952C94.0842 8.08499 94.1538 7.65909 94.1538 7.18182C94.1538 6.70786 94.0858 6.28693 93.9499 5.91903C93.814 5.55114 93.6119 5.26278 93.3434 5.05398C93.0749 4.84517 92.7402 4.74077 92.3391 4.74077C91.9547 4.74077 91.6282 4.84186 91.3597 5.04403C91.0913 5.24621 90.8874 5.52959 90.7482 5.89418C90.6123 6.25876 90.5444 6.68797 90.5444 7.18182ZM100.58 11.1491C99.8347 11.1491 99.1884 10.9851 98.6415 10.657C98.0946 10.3288 97.6704 9.86979 97.3688 9.27983C97.0705 8.68987 96.9214 8.00047 96.9214 7.21165C96.9214 6.42282 97.0705 5.73177 97.3688 5.13849C97.6704 4.54522 98.0946 4.08452 98.6415 3.75639C99.1884 3.42827 99.8347 3.2642 100.58 3.2642C101.326 3.2642 101.972 3.42827 102.519 3.75639C103.066 4.08452 103.489 4.54522 103.787 5.13849C104.089 5.73177 104.24 6.42282 104.24 7.21165C104.24 8.00047 104.089 8.68987 103.787 9.27983C103.489 9.86979 103.066 10.3288 102.519 10.657C101.972 10.9851 101.326 11.1491 100.58 11.1491ZM100.59 9.70739C100.995 9.70739 101.333 9.59635 101.605 9.37429C101.876 9.14891 102.079 8.8473 102.211 8.46946C102.347 8.09162 102.415 7.67069 102.415 7.20668C102.415 6.73935 102.347 6.31676 102.211 5.93892C102.079 5.55777 101.876 5.2545 101.605 5.02912C101.333 4.80374 100.995 4.69105 100.59 4.69105C100.176 4.69105 99.8314 4.80374 99.5563 5.02912C99.2845 5.2545 99.0807 5.55777 98.9448 5.93892C98.8122 6.31676 98.7459 6.73935 98.7459 7.20668C98.7459 7.67069 98.8122 8.09162 98.9448 8.46946C99.0807 8.8473 99.2845 9.14891 99.5563 9.37429C99.8314 9.59635 100.176 9.70739 100.59 9.70739ZM104.96 11L104.95 9.51847H105.214C105.412 9.51847 105.58 9.47372 105.716 9.38423C105.852 9.29474 105.964 9.1456 106.054 8.93679C106.143 8.72467 106.213 8.43963 106.263 8.08168C106.312 7.72372 106.347 7.27794 106.367 6.74432L106.501 3.36364H112.069V11H110.329V4.8402H108.137L108.018 7.30114C107.988 7.9375 107.917 8.48935 107.804 8.95668C107.694 9.42069 107.539 9.8035 107.336 10.1051C107.138 10.4067 106.887 10.6321 106.586 10.7812C106.284 10.9271 105.928 11 105.517 11H104.96ZM114.82 5.84943H117.072C118.046 5.84943 118.8 6.08641 119.334 6.56037C119.867 7.03433 120.136 7.65578 120.139 8.42472C120.136 8.92519 120.013 9.36932 119.771 9.7571C119.533 10.1449 119.185 10.4498 118.727 10.6719C118.273 10.8906 117.721 11 117.072 11H113.602V3.36364H115.337V9.52344H117.072C117.463 9.52344 117.784 9.42401 118.036 9.22514C118.288 9.02296 118.414 8.76444 118.414 8.44957C118.414 8.11813 118.288 7.84801 118.036 7.6392C117.784 7.4304 117.463 7.32599 117.072 7.32599H114.82V5.84943Z" fill="#545F71"/>
<path d="M0.378822 13.7841H120.751V14.7386H0.378822V13.7841Z" fill="#545F71"/>
</svg>
