<svg width="279" height="115" viewBox="0 0 279 115" fill="none" xmlns="http://www.w3.org/2000/svg">
<path d="M2.33584 34V7.12475H8.01796V18.9745H8.37227L18.0437 7.12475H24.8544L14.8811 19.1582L24.9725 34H18.1749L10.8131 22.9507L8.01796 26.3626V34H2.33584ZM34.6758 34.3937C32.6024 34.3937 30.8177 33.9738 29.3217 33.1339C27.8345 32.2853 26.6884 31.0868 25.8836 29.5383C25.0787 27.9811 24.6763 26.1395 24.6763 24.0136C24.6763 21.9403 25.0787 20.1206 25.8836 18.5546C26.6884 16.9886 27.8214 15.7682 29.2823 14.8934C30.7521 14.0185 32.4755 13.5811 34.4527 13.5811C35.7824 13.5811 37.0204 13.7954 38.1664 14.2241C39.3212 14.644 40.3273 15.2783 41.1846 16.1269C42.0507 16.9755 42.7243 18.0428 43.2055 19.3288C43.6867 20.6061 43.9273 22.1021 43.9273 23.8168V25.3522H26.9071V21.8878H38.6651C38.6651 21.0829 38.4901 20.3699 38.1402 19.7488C37.7902 19.1276 37.3047 18.6421 36.6835 18.2922C36.0711 17.9335 35.3581 17.7541 34.5445 17.7541C33.6959 17.7541 32.9436 17.951 32.2874 18.3446C31.6401 18.7296 31.1326 19.2501 30.7652 19.9062C30.3978 20.5536 30.2097 21.2754 30.2009 22.0715V25.3653C30.2009 26.3626 30.3846 27.2243 30.7521 27.9504C31.1283 28.6766 31.6575 29.2365 32.3399 29.6301C33.0223 30.0238 33.8315 30.2207 34.7676 30.2207C35.3888 30.2207 35.9574 30.1332 36.4736 29.9582C36.9897 29.7832 37.4315 29.5208 37.799 29.1709C38.1664 28.8209 38.4463 28.3922 38.6388 27.8848L43.8092 28.226C43.5467 29.4683 43.0087 30.5531 42.1951 31.4804C41.3902 32.399 40.3491 33.1164 39.0719 33.6326C37.8033 34.14 36.338 34.3937 34.6758 34.3937ZM56.0222 34.3937C53.9488 34.3937 52.1641 33.9738 50.6681 33.1339C49.1809 32.2853 48.0348 31.0868 47.23 29.5383C46.4251 27.9811 46.0227 26.1395 46.0227 24.0136C46.0227 21.9403 46.4251 20.1206 47.23 18.5546C48.0348 16.9886 49.1678 15.7682 50.6287 14.8934C52.0985 14.0185 53.8219 13.5811 55.7991 13.5811C57.1288 13.5811 58.3668 13.7954 59.5128 14.2241C60.6676 14.644 61.6737 15.2783 62.531 16.1269C63.3971 16.9755 64.0707 18.0428 64.5519 19.3288C65.0331 20.6061 65.2737 22.1021 65.2737 23.8168V25.3522H48.2535V21.8878H60.0115C60.0115 21.0829 59.8365 20.3699 59.4866 19.7488C59.1366 19.1276 58.6511 18.6421 58.0299 18.2922C57.4175 17.9335 56.7045 17.7541 55.8909 17.7541C55.0423 17.7541 54.29 17.951 53.6338 18.3446C52.9865 18.7296 52.479 19.2501 52.1116 19.9062C51.7442 20.5536 51.5561 21.2754 51.5473 22.0715V25.3653C51.5473 26.3626 51.7311 27.2243 52.0985 27.9504C52.4747 28.6766 53.004 29.2365 53.6863 29.6301C54.3687 30.0238 55.1779 30.2207 56.114 30.2207C56.7352 30.2207 57.3038 30.1332 57.82 29.9582C58.3361 29.7832 58.7779 29.5208 59.1454 29.1709C59.5128 28.8209 59.7928 28.3922 59.9852 27.8848L65.1556 28.226C64.8931 29.4683 64.3551 30.5531 63.5415 31.4804C62.7366 32.399 61.6955 33.1164 60.4183 33.6326C59.1497 34.14 57.6844 34.3937 56.0222 34.3937ZM68.1827 41.5587V13.8436H73.6942V17.2292H73.9435C74.1885 16.6868 74.5428 16.1357 75.0065 15.5758C75.4789 15.0071 76.0913 14.5347 76.8437 14.1585C77.6048 13.7736 78.5496 13.5811 79.6782 13.5811C81.1479 13.5811 82.5039 13.966 83.7462 14.7359C84.9885 15.497 85.9814 16.6474 86.725 18.1872C87.4687 19.7181 87.8405 21.6384 87.8405 23.948C87.8405 26.1964 87.4774 28.0948 86.7513 29.6433C86.0339 31.183 85.0541 32.3509 83.8118 33.147C82.5783 33.9344 81.196 34.3281 79.665 34.3281C78.5802 34.3281 77.6573 34.1487 76.8962 33.79C76.1438 33.4314 75.527 32.9808 75.0459 32.4384C74.5647 31.8872 74.1973 31.3317 73.9435 30.7718H73.773V41.5587H68.1827ZM73.6548 23.9218C73.6548 25.1203 73.8211 26.1658 74.1535 27.0581C74.486 27.9504 74.9671 28.6459 75.597 29.1446C76.2269 29.6345 76.9924 29.8795 77.8935 29.8795C78.8033 29.8795 79.5732 29.6301 80.2031 29.1315C80.833 28.6241 81.3097 27.9242 81.6334 27.0319C81.9659 26.1308 82.1321 25.0941 82.1321 23.9218C82.1321 22.7582 81.9703 21.7347 81.6466 20.8511C81.3229 19.9675 80.8461 19.2764 80.2162 18.7777C79.5863 18.279 78.8121 18.0297 77.8935 18.0297C76.9836 18.0297 76.2138 18.2703 75.5839 18.7514C74.9627 19.2326 74.486 19.915 74.1535 20.7986C73.8211 21.6822 73.6548 22.7232 73.6548 23.9218ZM102.093 41.5587C101.385 41.5587 100.72 41.5018 100.098 41.3881C99.4861 41.2831 98.9787 41.1475 98.5763 40.9813L99.836 36.8083C100.492 37.0095 101.083 37.1188 101.608 37.1363C102.141 37.1538 102.601 37.0313 102.985 36.7689C103.379 36.5064 103.698 36.0603 103.943 35.4304L104.272 34.5774L97.0409 13.8436H102.92L107.093 28.6459H107.303L111.515 13.8436H117.434L109.599 36.1784C109.223 37.2632 108.711 38.208 108.064 39.0129C107.425 39.8265 106.616 40.452 105.636 40.8894C104.656 41.3356 103.475 41.5587 102.093 41.5587ZM128.013 34.3937C125.974 34.3937 124.212 33.9606 122.724 33.0945C121.246 32.2197 120.104 31.0037 119.299 29.4464C118.494 27.8805 118.092 26.0652 118.092 24.0005C118.092 21.9184 118.494 20.0987 119.299 18.5415C120.104 16.9755 121.246 15.7595 122.724 14.8934C124.212 14.0185 125.974 13.5811 128.013 13.5811C130.051 13.5811 131.81 14.0185 133.288 14.8934C134.775 15.7595 135.921 16.9755 136.726 18.5415C137.531 20.0987 137.934 21.9184 137.934 24.0005C137.934 26.0652 137.531 27.8805 136.726 29.4464C135.921 31.0037 134.775 32.2197 133.288 33.0945C131.81 33.9606 130.051 34.3937 128.013 34.3937ZM128.039 30.0632C128.966 30.0632 129.741 29.8007 130.362 29.2758C130.983 28.7422 131.451 28.0161 131.766 27.0975C132.09 26.1789 132.251 25.1334 132.251 23.9611C132.251 22.7889 132.09 21.7434 131.766 20.8248C131.451 19.9062 130.983 19.1801 130.362 18.6465C129.741 18.1128 128.966 17.846 128.039 17.846C127.103 17.846 126.316 18.1128 125.677 18.6465C125.047 19.1801 124.57 19.9062 124.247 20.8248C123.932 21.7434 123.774 22.7889 123.774 23.9611C123.774 25.1334 123.932 26.1789 124.247 27.0975C124.57 28.0161 125.047 28.7422 125.677 29.2758C126.316 29.8007 127.103 30.0632 128.039 30.0632ZM153.755 25.4178V13.8436H159.346V34H153.978V30.3388H153.768C153.314 31.5198 152.557 32.469 151.498 33.1864C150.448 33.9038 149.167 34.2625 147.653 34.2625C146.306 34.2625 145.121 33.9563 144.097 33.3439C143.073 32.7315 142.273 31.861 141.696 30.7325C141.127 29.6039 140.838 28.2523 140.829 26.6775V13.8436H146.42V25.6802C146.428 26.87 146.748 27.8105 147.378 28.5016C148.008 29.1927 148.852 29.5383 149.91 29.5383C150.584 29.5383 151.214 29.3852 151.8 29.079C152.386 28.7641 152.859 28.3004 153.217 27.688C153.585 27.0756 153.764 26.3189 153.755 25.4178ZM163.078 34V13.8436H168.498V17.3604H168.708C169.075 16.1094 169.692 15.1646 170.558 14.5259C171.424 13.8786 172.421 13.5549 173.55 13.5549C173.83 13.5549 174.132 13.5724 174.455 13.6074C174.779 13.6423 175.063 13.6905 175.308 13.7517V18.7121C175.046 18.6333 174.683 18.5634 174.219 18.5021C173.756 18.4409 173.331 18.4103 172.946 18.4103C172.124 18.4103 171.389 18.5896 170.742 18.9483C170.103 19.2982 169.596 19.7881 169.219 20.418C168.852 21.0479 168.668 21.774 168.668 22.5964V34H163.078ZM185.378 34V7.12475H190.968V17.2292H191.139C191.384 16.6868 191.738 16.1357 192.202 15.5758C192.674 15.0071 193.287 14.5347 194.039 14.1585C194.8 13.7736 195.745 13.5811 196.874 13.5811C198.343 13.5811 199.699 13.966 200.942 14.7359C202.184 15.497 203.177 16.6474 203.921 18.1872C204.664 19.7181 205.036 21.6384 205.036 23.948C205.036 26.1964 204.673 28.0948 203.947 29.6433C203.229 31.183 202.25 32.3509 201.007 33.147C199.774 33.9344 198.392 34.3281 196.861 34.3281C195.776 34.3281 194.853 34.1487 194.092 33.79C193.339 33.4314 192.723 32.9808 192.241 32.4384C191.76 31.8872 191.393 31.3317 191.139 30.7718H190.89V34H185.378ZM190.85 23.9218C190.85 25.1203 191.017 26.1658 191.349 27.0581C191.681 27.9504 192.163 28.6459 192.793 29.1446C193.422 29.6345 194.188 29.8795 195.089 29.8795C195.999 29.8795 196.769 29.6301 197.399 29.1315C198.028 28.6241 198.505 27.9242 198.829 27.0319C199.161 26.1308 199.328 25.0941 199.328 23.9218C199.328 22.7582 199.166 21.7347 198.842 20.8511C198.518 19.9675 198.042 19.2764 197.412 18.7777C196.782 18.279 196.008 18.0297 195.089 18.0297C194.179 18.0297 193.409 18.2703 192.779 18.7514C192.158 19.2326 191.681 19.915 191.349 20.7986C191.017 21.6822 190.85 22.7232 190.85 23.9218ZM217.134 34.3937C215.096 34.3937 213.333 33.9606 211.846 33.0945C210.367 32.2197 209.226 31.0037 208.421 29.4464C207.616 27.8805 207.213 26.0652 207.213 24.0005C207.213 21.9184 207.616 20.0987 208.421 18.5415C209.226 16.9755 210.367 15.7595 211.846 14.8934C213.333 14.0185 215.096 13.5811 217.134 13.5811C219.173 13.5811 220.931 14.0185 222.409 14.8934C223.897 15.7595 225.043 16.9755 225.848 18.5415C226.652 20.0987 227.055 21.9184 227.055 24.0005C227.055 26.0652 226.652 27.8805 225.848 29.4464C225.043 31.0037 223.897 32.2197 222.409 33.0945C220.931 33.9606 219.173 34.3937 217.134 34.3937ZM217.16 30.0632C218.088 30.0632 218.862 29.8007 219.483 29.2758C220.104 28.7422 220.572 28.0161 220.887 27.0975C221.211 26.1789 221.373 25.1334 221.373 23.9611C221.373 22.7889 221.211 21.7434 220.887 20.8248C220.572 19.9062 220.104 19.1801 219.483 18.6465C218.862 18.1128 218.088 17.846 217.16 17.846C216.224 17.846 215.437 18.1128 214.798 18.6465C214.168 19.1801 213.692 19.9062 213.368 20.8248C213.053 21.7434 212.896 22.7889 212.896 23.9611C212.896 25.1334 213.053 26.1789 213.368 27.0975C213.692 28.0161 214.168 28.7422 214.798 29.2758C215.437 29.8007 216.224 30.0632 217.16 30.0632ZM237.378 34.3281C235.847 34.3281 234.461 33.9344 233.218 33.147C231.985 32.3509 231.005 31.183 230.279 29.6433C229.562 28.0948 229.203 26.1964 229.203 23.948C229.203 21.6384 229.575 19.7181 230.318 18.1872C231.062 16.6474 232.05 15.497 233.284 14.7359C234.526 13.966 235.887 13.5811 237.365 13.5811C238.494 13.5811 239.434 13.7736 240.187 14.1585C240.948 14.5347 241.56 15.0071 242.024 15.5758C242.496 16.1357 242.855 16.6868 243.1 17.2292H243.27V7.12475H248.847V34H243.336V30.7718H243.1C242.837 31.3317 242.465 31.8872 241.984 32.4384C241.512 32.9808 240.895 33.4314 240.134 33.79C239.382 34.1487 238.463 34.3281 237.378 34.3281ZM239.15 29.8795C240.051 29.8795 240.812 29.6345 241.433 29.1446C242.063 28.6459 242.544 27.9504 242.877 27.0581C243.218 26.1658 243.388 25.1203 243.388 23.9218C243.388 22.7232 243.222 21.6822 242.89 20.7986C242.557 19.915 242.076 19.2326 241.446 18.7514C240.816 18.2703 240.051 18.0297 239.15 18.0297C238.231 18.0297 237.457 18.279 236.827 18.7777C236.197 19.2764 235.72 19.9675 235.397 20.8511C235.073 21.7347 234.911 22.7582 234.911 23.9218C234.911 25.0941 235.073 26.1308 235.397 27.0319C235.729 27.9242 236.206 28.6241 236.827 29.1315C237.457 29.6301 238.231 29.8795 239.15 29.8795ZM256.156 41.5587C255.447 41.5587 254.782 41.5018 254.161 41.3881C253.549 41.2831 253.041 41.1475 252.639 40.9813L253.899 36.8083C254.555 37.0095 255.145 37.1188 255.67 37.1363C256.204 37.1538 256.663 37.0313 257.048 36.7689C257.442 36.5064 257.761 36.0603 258.006 35.4304L258.334 34.5774L251.104 13.8436H256.983L261.156 28.6459H261.366L265.578 13.8436H271.496L263.662 36.1784C263.286 37.2632 262.774 38.208 262.127 39.0129C261.488 39.8265 260.679 40.452 259.699 40.8894C258.719 41.3356 257.538 41.5587 256.156 41.5587Z" fill="#F7F8FA"/>
<path d="M42.2869 99V61.1818H50.2827V76.7855H66.5142V61.1818H74.4915V99H66.5142V83.3778H50.2827V99H42.2869ZM92.8222 99.554C89.9046 99.554 87.3932 98.9631 85.2881 97.7812C83.1953 96.5871 81.5826 94.9006 80.4501 92.7216C79.3175 90.5303 78.7512 87.9389 78.7512 84.9474C78.7512 82.0298 79.3175 79.4692 80.4501 77.2656C81.5826 75.062 83.1769 73.3447 85.2327 72.1136C87.3009 70.8826 89.7261 70.267 92.5083 70.267C94.3795 70.267 96.1215 70.5687 97.7341 71.1719C99.3591 71.7628 100.775 72.6553 101.981 73.8494C103.2 75.0436 104.148 76.5455 104.825 78.3551C105.502 80.1525 105.841 82.2576 105.841 84.6705V86.831H81.8904V81.956H98.4359C98.4359 80.8234 98.1896 79.8201 97.6972 78.946C97.2048 78.072 96.5216 77.3887 95.6475 76.8963C94.7858 76.3916 93.7824 76.1392 92.6376 76.1392C91.4434 76.1392 90.3847 76.4162 89.4614 76.9702C88.5504 77.5118 87.8364 78.2443 87.3194 79.1676C86.8023 80.0786 86.5377 81.0942 86.5253 82.2145V86.8494C86.5253 88.2528 86.7839 89.4654 87.3009 90.4872C87.8303 91.509 88.5751 92.2969 89.5353 92.8509C90.4955 93.4048 91.6342 93.6818 92.9515 93.6818C93.8255 93.6818 94.6257 93.5587 95.352 93.3125C96.0784 93.0663 96.7001 92.697 97.2171 92.2045C97.7341 91.7121 98.1281 91.1089 98.3989 90.3949L105.674 90.875C105.305 92.6231 104.548 94.1496 103.403 95.4545C102.271 96.7472 100.806 97.7566 99.0083 98.483C97.2233 99.197 95.1612 99.554 92.8222 99.554ZM118.022 99.5355C116.213 99.5355 114.6 99.2216 113.184 98.5938C111.768 97.9536 110.648 97.0118 109.823 95.7685C109.011 94.5128 108.605 92.9493 108.605 91.0781C108.605 89.5024 108.894 88.179 109.473 87.108C110.051 86.0369 110.839 85.1752 111.836 84.5227C112.833 83.8703 113.966 83.3778 115.234 83.0455C116.514 82.7131 117.856 82.4792 119.259 82.3438C120.909 82.1714 122.239 82.0114 123.248 81.8636C124.258 81.7036 124.99 81.4697 125.446 81.1619C125.901 80.8542 126.129 80.3987 126.129 79.7955V79.6847C126.129 78.5152 125.759 77.6103 125.021 76.9702C124.295 76.33 123.26 76.0099 121.919 76.0099C120.503 76.0099 119.376 76.3239 118.539 76.9517C117.702 77.5672 117.148 78.3428 116.877 79.2784L109.602 78.6875C109.971 76.964 110.697 75.4744 111.781 74.2188C112.864 72.9508 114.261 71.9782 115.973 71.3011C117.696 70.6117 119.69 70.267 121.956 70.267C123.531 70.267 125.039 70.4517 126.48 70.821C127.932 71.1903 129.219 71.7628 130.339 72.5384C131.472 73.3139 132.364 74.3111 133.017 75.5298C133.669 76.7363 133.995 78.1828 133.995 79.8693V99H126.535V95.0668H126.313C125.858 95.9531 125.249 96.7348 124.485 97.4119C123.722 98.0767 122.805 98.5999 121.734 98.9815C120.663 99.3509 119.426 99.5355 118.022 99.5355ZM120.275 94.1065C121.432 94.1065 122.454 93.8788 123.34 93.4233C124.227 92.9555 124.922 92.3277 125.427 91.5398C125.932 90.7519 126.184 89.8594 126.184 88.8622V85.8523C125.938 86.0123 125.599 86.16 125.169 86.2955C124.75 86.4186 124.276 86.5355 123.747 86.6463C123.217 86.7448 122.688 86.8371 122.159 86.9233C121.629 86.9972 121.149 87.0649 120.718 87.1264C119.795 87.2618 118.989 87.4773 118.299 87.7727C117.61 88.0682 117.074 88.4683 116.693 88.973C116.311 89.4654 116.12 90.081 116.12 90.8196C116.12 91.8906 116.508 92.7093 117.284 93.2756C118.072 93.8295 119.069 94.1065 120.275 94.1065ZM146.925 61.1818V99H139.058V61.1818H146.925ZM167.273 70.6364V76.5455H150.192V70.6364H167.273ZM154.07 63.8409H161.936V90.2841C161.936 91.0104 162.047 91.5767 162.269 91.983C162.49 92.3769 162.798 92.6539 163.192 92.8139C163.598 92.974 164.066 93.054 164.595 93.054C164.965 93.054 165.334 93.0232 165.703 92.9616C166.073 92.8878 166.356 92.8324 166.553 92.7955L167.79 98.6491C167.396 98.7723 166.842 98.9138 166.128 99.0739C165.414 99.2462 164.546 99.3509 163.524 99.3878C161.628 99.4616 159.967 99.2093 158.539 98.6307C157.123 98.0521 156.021 97.1534 155.233 95.9347C154.445 94.7159 154.057 93.1771 154.07 91.3182V63.8409ZM179.833 82.6023V99H171.967V61.1818H179.611V75.6406H179.944C180.584 73.9664 181.618 72.6553 183.046 71.7074C184.474 70.7472 186.265 70.267 188.42 70.267C190.389 70.267 192.107 70.6979 193.572 71.5597C195.049 72.4091 196.194 73.634 197.006 75.2344C197.831 76.8224 198.237 78.7244 198.225 80.9403V99H190.359V82.3438C190.371 80.5956 189.928 79.2353 189.029 78.2628C188.143 77.2902 186.899 76.804 185.299 76.804C184.228 76.804 183.28 77.0317 182.455 77.4872C181.643 77.9427 181.003 78.6075 180.535 79.4815C180.079 80.3433 179.845 81.3835 179.833 82.6023ZM207.217 109.636C206.22 109.636 205.284 109.556 204.41 109.396C203.548 109.249 202.834 109.058 202.268 108.824L204.041 102.952C204.964 103.235 205.795 103.389 206.533 103.413C207.284 103.438 207.931 103.266 208.472 102.896C209.026 102.527 209.476 101.899 209.82 101.013L210.282 99.8125L200.107 70.6364H208.38L214.252 91.4659H214.548L220.475 70.6364H228.803L217.779 102.065C217.25 103.592 216.53 104.921 215.619 106.054C214.72 107.199 213.581 108.079 212.202 108.695C210.824 109.322 209.162 109.636 207.217 109.636Z" fill="#80F988"/>
</svg>
