<svg width="108" height="15" viewBox="0 0 108 15" fill="none" xmlns="http://www.w3.org/2000/svg">
<path d="M1.08941 0.818182H3.34652L6.36924 8.19602H6.48856L9.51129 0.818182H11.7684V11H9.9985V4.00497H9.90404L7.09012 10.9702H5.76768L2.95376 3.99006H2.8593V11H1.08941V0.818182ZM15.6148 11.1541C15.1309 11.1541 14.6951 11.0679 14.3073 10.8956C13.9228 10.7199 13.6179 10.4614 13.3925 10.12C13.1704 9.77865 13.0594 9.35772 13.0594 8.85724C13.0594 8.42637 13.139 8.07008 13.2981 7.78835C13.4571 7.50663 13.6742 7.28125 13.9493 7.11222C14.2244 6.94318 14.5343 6.81558 14.879 6.7294C15.227 6.63991 15.5866 6.57528 15.9579 6.53551C16.4053 6.48911 16.7682 6.44768 17.0466 6.41122C17.325 6.37145 17.5272 6.31179 17.6532 6.23224C17.7824 6.14938 17.8471 6.02178 17.8471 5.84943V5.8196C17.8471 5.44508 17.736 5.15507 17.514 4.94957C17.2919 4.74408 16.9721 4.64134 16.5544 4.64134C16.1136 4.64134 15.764 4.73745 15.5054 4.92969C15.2502 5.12192 15.0779 5.34896 14.9884 5.6108L13.308 5.37216C13.4406 4.90814 13.6593 4.52036 13.9642 4.20881C14.2692 3.89394 14.642 3.65862 15.0829 3.50284C15.5237 3.34375 16.0109 3.2642 16.5445 3.2642C16.9124 3.2642 17.2786 3.30729 17.6432 3.39347C18.0078 3.47964 18.3409 3.62216 18.6425 3.82102C18.9441 4.01657 19.1861 4.28338 19.3684 4.62145C19.554 4.95952 19.6468 5.3821 19.6468 5.8892V11H17.9167V9.95099H17.857C17.7476 10.1631 17.5935 10.362 17.3946 10.5476C17.1991 10.7299 16.9522 10.8774 16.6539 10.9901C16.3589 11.0994 16.0125 11.1541 15.6148 11.1541ZM16.0821 9.83168C16.4434 9.83168 16.7566 9.76042 17.0218 9.6179C17.2869 9.47206 17.4908 9.27983 17.6333 9.04119C17.7791 8.80256 17.852 8.54238 17.852 8.26065V7.3608C17.7957 7.4072 17.6996 7.45028 17.5637 7.49006C17.4311 7.52983 17.282 7.56463 17.1162 7.59446C16.9505 7.62429 16.7865 7.6508 16.624 7.67401C16.4616 7.69721 16.3208 7.71709 16.2015 7.73366C15.933 7.77012 15.6927 7.82978 15.4806 7.91264C15.2685 7.9955 15.1011 8.11151 14.9784 8.26065C14.8558 8.40649 14.7945 8.59541 14.7945 8.82741C14.7945 9.15885 14.9155 9.40909 15.1574 9.57812C15.3994 9.74716 15.7076 9.83168 16.0821 9.83168ZM24.746 6.64489V7.8331H21.6388V6.64489H24.746ZM27.5152 5.76989L25.8149 5.99361C25.7221 5.63234 25.5498 5.33404 25.2979 5.09872C25.046 4.86008 24.693 4.74077 24.2389 4.74077C23.8346 4.74077 23.4932 4.84186 23.2148 5.04403C22.9397 5.24621 22.7309 5.53125 22.5884 5.89915C22.4458 6.26373 22.3746 6.69129 22.3746 7.18182C22.3746 7.67566 22.4442 8.10819 22.5834 8.4794C22.7259 8.85062 22.9347 9.14062 23.2098 9.34943C23.4882 9.55492 23.8313 9.65767 24.2389 9.65767C24.5173 9.65767 24.7609 9.60961 24.9698 9.51349C25.1786 9.41406 25.3509 9.27817 25.4868 9.10582C25.626 8.93016 25.7271 8.72633 25.7901 8.49432L27.5003 8.7081C27.4042 9.18868 27.2086 9.61293 26.9136 9.98082C26.622 10.3454 26.2475 10.6321 25.7901 10.8409C25.336 11.0464 24.819 11.1491 24.2389 11.1491C23.4965 11.1491 22.8552 10.9801 22.3149 10.642C21.778 10.304 21.3637 9.83665 21.072 9.24006C20.7837 8.64347 20.6395 7.95739 20.6395 7.18182C20.6395 6.41619 20.7853 5.74006 21.077 5.15341C21.372 4.56345 21.7879 4.10109 22.3249 3.76633C22.8618 3.43158 23.4998 3.2642 24.2389 3.2642C24.8156 3.2642 25.3327 3.36861 25.7901 3.57741C26.2508 3.78291 26.6303 4.07292 26.9286 4.44744C27.2302 4.82197 27.4257 5.26278 27.5152 5.76989ZM28.2718 4.8402V3.36364H34.9536V4.8402H32.4827V11H30.7427V4.8402H28.2718ZM39.1729 11.1491C38.4073 11.1491 37.746 10.9901 37.1892 10.6719C36.6357 10.3504 36.2098 9.89631 35.9115 9.30966C35.6132 8.7197 35.4641 8.02533 35.4641 7.22656C35.4641 6.44105 35.6132 5.75166 35.9115 5.15838C36.2131 4.56179 36.6341 4.09777 37.1743 3.76633C37.7146 3.43158 38.3493 3.2642 39.0784 3.2642C39.5491 3.2642 39.9932 3.34044 40.4108 3.4929C40.8317 3.64205 41.203 3.87405 41.5245 4.18892C41.8493 4.50379 42.1045 4.90483 42.2901 5.39205C42.4757 5.87595 42.5685 6.45265 42.5685 7.12216V7.67401H36.3093V6.46094H40.8433C40.84 6.11624 40.7655 5.80966 40.6196 5.54119C40.4738 5.26941 40.27 5.05563 40.0081 4.89986C39.7496 4.74408 39.448 4.66619 39.1033 4.66619C38.7354 4.66619 38.4122 4.75568 38.1338 4.93466C37.8554 5.11032 37.6383 5.34233 37.4826 5.63068C37.3301 5.91572 37.2522 6.22893 37.2489 6.57031V7.62926C37.2489 8.07339 37.3301 8.45455 37.4925 8.77273C37.6549 9.08759 37.8819 9.32955 38.1736 9.49858C38.4653 9.6643 38.8067 9.74716 39.1978 9.74716C39.4596 9.74716 39.6966 9.7107 39.9087 9.63778C40.1208 9.56155 40.3048 9.45052 40.4605 9.30469C40.6163 9.15885 40.734 8.97822 40.8135 8.76278L42.4939 8.9517C42.3879 9.39583 42.1857 9.78362 41.8874 10.1151C41.5924 10.4432 41.2146 10.6984 40.7539 10.8807C40.2932 11.0597 39.7662 11.1491 39.1729 11.1491ZM49.2011 11.1541C48.7172 11.1541 48.2814 11.0679 47.8936 10.8956C47.5091 10.7199 47.2042 10.4614 46.9788 10.12C46.7568 9.77865 46.6457 9.35772 46.6457 8.85724C46.6457 8.42637 46.7253 8.07008 46.8844 7.78835C47.0435 7.50663 47.2606 7.28125 47.5357 7.11222C47.8108 6.94318 48.1206 6.81558 48.4653 6.7294C48.8134 6.63991 49.173 6.57528 49.5442 6.53551C49.9916 6.48911 50.3545 6.44768 50.633 6.41122C50.9114 6.37145 51.1135 6.31179 51.2395 6.23224C51.3688 6.14938 51.4334 6.02178 51.4334 5.84943V5.8196C51.4334 5.44508 51.3224 5.15507 51.1003 4.94957C50.8782 4.74408 50.5584 4.64134 50.1408 4.64134C49.7 4.64134 49.3503 4.73745 49.0918 4.92969C48.8366 5.12192 48.6642 5.34896 48.5747 5.6108L46.8943 5.37216C47.0269 4.90814 47.2456 4.52036 47.5506 4.20881C47.8555 3.89394 48.2284 3.65862 48.6692 3.50284C49.11 3.34375 49.5972 3.2642 50.1308 3.2642C50.4987 3.2642 50.865 3.30729 51.2295 3.39347C51.5941 3.47964 51.9272 3.62216 52.2288 3.82102C52.5304 4.01657 52.7724 4.28338 52.9547 4.62145C53.1403 4.95952 53.2331 5.3821 53.2331 5.8892V11H51.503V9.95099H51.4433C51.334 10.1631 51.1798 10.362 50.981 10.5476C50.7854 10.7299 50.5385 10.8774 50.2402 10.9901C49.9452 11.0994 49.5989 11.1541 49.2011 11.1541ZM49.6685 9.83168C50.0297 9.83168 50.3429 9.76042 50.6081 9.6179C50.8733 9.47206 51.0771 9.27983 51.2196 9.04119C51.3654 8.80256 51.4384 8.54238 51.4384 8.26065V7.3608C51.382 7.4072 51.2859 7.45028 51.15 7.49006C51.0174 7.52983 50.8683 7.56463 50.7026 7.59446C50.5368 7.62429 50.3728 7.6508 50.2104 7.67401C50.048 7.69721 49.9071 7.71709 49.7878 7.73366C49.5193 7.77012 49.279 7.82978 49.0669 7.91264C48.8548 7.9955 48.6874 8.11151 48.5648 8.26065C48.4421 8.40649 48.3808 8.59541 48.3808 8.82741C48.3808 9.15885 48.5018 9.40909 48.7438 9.57812C48.9857 9.74716 49.2939 9.83168 49.6685 9.83168ZM54.7628 11V3.36364H56.5625V6.44602H57.2187L59.5156 3.36364H61.6832L58.8544 7.11222L61.713 11H59.5355L57.4424 8.12145H56.5625V11H54.7628ZM62.4535 11V3.36364H64.2532V6.44602H64.9094L67.2063 3.36364H69.3739L66.5451 7.11222L69.4037 11H67.2262L65.1332 8.12145H64.2532V11H62.4535ZM72.3416 11.1541C71.8577 11.1541 71.4219 11.0679 71.0341 10.8956C70.6496 10.7199 70.3447 10.4614 70.1193 10.12C69.8972 9.77865 69.7862 9.35772 69.7862 8.85724C69.7862 8.42637 69.8658 8.07008 70.0248 7.78835C70.1839 7.50663 70.401 7.28125 70.6761 7.11222C70.9512 6.94318 71.2611 6.81558 71.6058 6.7294C71.9538 6.63991 72.3134 6.57528 72.6847 6.53551C73.1321 6.48911 73.495 6.44768 73.7734 6.41122C74.0518 6.37145 74.254 6.31179 74.38 6.23224C74.5092 6.14938 74.5739 6.02178 74.5739 5.84943V5.8196C74.5739 5.44508 74.4628 5.15507 74.2408 4.94957C74.0187 4.74408 73.6989 4.64134 73.2812 4.64134C72.8404 4.64134 72.4908 4.73745 72.2322 4.92969C71.977 5.12192 71.8047 5.34896 71.7152 5.6108L70.0348 5.37216C70.1674 4.90814 70.3861 4.52036 70.691 4.20881C70.996 3.89394 71.3688 3.65862 71.8097 3.50284C72.2505 3.34375 72.7377 3.2642 73.2713 3.2642C73.6392 3.2642 74.0054 3.30729 74.37 3.39347C74.7346 3.47964 75.0677 3.62216 75.3693 3.82102C75.6709 4.01657 75.9129 4.28338 76.0952 4.62145C76.2808 4.95952 76.3736 5.3821 76.3736 5.8892V11H74.6435V9.95099H74.5838C74.4744 10.1631 74.3203 10.362 74.1214 10.5476C73.9259 10.7299 73.679 10.8774 73.3807 10.9901C73.0857 11.0994 72.7393 11.1541 72.3416 11.1541ZM72.8089 9.83168C73.1702 9.83168 73.4834 9.76042 73.7486 9.6179C74.0137 9.47206 74.2176 9.27983 74.3601 9.04119C74.5059 8.80256 74.5788 8.54238 74.5788 8.26065V7.3608C74.5225 7.4072 74.4264 7.45028 74.2905 7.49006C74.1579 7.52983 74.0088 7.56463 73.843 7.59446C73.6773 7.62429 73.5132 7.6508 73.3508 7.67401C73.1884 7.69721 73.0476 7.71709 72.9283 7.73366C72.6598 7.77012 72.4195 7.82978 72.2074 7.91264C71.9953 7.9955 71.8279 8.11151 71.7052 8.26065C71.5826 8.40649 71.5213 8.59541 71.5213 8.82741C71.5213 9.15885 71.6423 9.40909 71.8842 9.57812C72.1262 9.74716 72.4344 9.83168 72.8089 9.83168ZM78.7484 13.8636C78.5031 13.8636 78.2761 13.8438 78.0673 13.804C77.8618 13.7675 77.6977 13.7244 77.5751 13.6747L77.9927 12.2727C78.2545 12.349 78.4882 12.3854 78.6937 12.3821C78.8992 12.3788 79.0798 12.3142 79.2356 12.1882C79.3947 12.0656 79.5289 11.8601 79.6383 11.5717L79.7924 11.1591L77.0233 3.36364H78.9323L80.6923 9.13068H80.7718L82.5367 3.36364H84.4508L81.3933 11.9247C81.2508 12.3291 81.0618 12.6754 80.8265 12.9638C80.5912 13.2554 80.3028 13.4775 79.9615 13.63C79.6234 13.7857 79.219 13.8636 78.7484 13.8636ZM90.6612 6.43608V7.91264H86.5945V6.43608H90.6612ZM87.1513 3.36364V11H85.4162V3.36364H87.1513ZM91.8395 3.36364V11H90.1094V3.36364H91.8395ZM92.5252 4.8402V3.36364H99.207V4.8402H96.7362V11H94.9961V4.8402H92.5252ZM102.08 8.0071V7.87784C102.084 7.27794 102.14 6.80066 102.249 6.44602C102.362 6.09138 102.521 5.80634 102.727 5.59091C102.932 5.37216 103.182 5.17164 103.477 4.98935C103.679 4.8634 103.86 4.72585 104.019 4.5767C104.182 4.42424 104.309 4.25521 104.402 4.0696C104.495 3.88068 104.541 3.67022 104.541 3.43821C104.541 3.17637 104.48 2.94934 104.357 2.7571C104.235 2.56487 104.069 2.41572 103.86 2.30966C103.655 2.2036 103.424 2.15057 103.169 2.15057C102.934 2.15057 102.71 2.20194 102.498 2.30469C102.289 2.40412 102.115 2.55658 101.976 2.76207C101.84 2.96425 101.764 3.22112 101.747 3.53267H99.9773C99.9939 2.90294 100.146 2.37595 100.435 1.9517C100.726 1.52746 101.111 1.20928 101.588 0.997158C102.069 0.785037 102.599 0.678977 103.179 0.678977C103.812 0.678977 104.369 0.790009 104.849 1.01207C105.333 1.23414 105.71 1.55066 105.978 1.96165C106.25 2.36932 106.386 2.85322 106.386 3.41335C106.386 3.79119 106.324 4.12926 106.202 4.42756C106.082 4.72585 105.912 4.991 105.69 5.22301C105.468 5.45502 105.204 5.66217 104.899 5.84446C104.631 6.01018 104.41 6.18253 104.238 6.36151C104.069 6.54048 103.943 6.75095 103.86 6.9929C103.781 7.23153 103.739 7.52652 103.736 7.87784V8.0071H102.08ZM102.945 11.1094C102.647 11.1094 102.39 11.0033 102.175 10.7912C101.959 10.5791 101.852 10.3205 101.852 10.0156C101.852 9.71733 101.959 9.46212 102.175 9.25C102.39 9.03788 102.647 8.93182 102.945 8.93182C103.24 8.93182 103.496 9.03788 103.711 9.25C103.93 9.46212 104.039 9.71733 104.039 10.0156C104.039 10.2178 103.988 10.4018 103.885 10.5675C103.786 10.7332 103.653 10.8658 103.487 10.9652C103.325 11.0613 103.144 11.1094 102.945 11.1094Z" fill="#545F71"/>
<path d="M0.0851517 13.7841H107.052V14.7386H0.0851517V13.7841Z" fill="#545F71"/>
</svg>
