<svg width="228" height="18" viewBox="0 0 228 18" fill="none" xmlns="http://www.w3.org/2000/svg">
<path d="M2.02273 13.1591V11.8409H2.75C3.0303 11.8409 3.26515 11.786 3.45455 11.6761C3.64773 11.5663 3.80682 11.4242 3.93182 11.25C4.06061 11.0758 4.16667 10.8939 4.25 10.7045L4.43182 10.2727L0.409091 1.36364H1.93182L5.13636 8.59091L8.06818 1.36364H9.56818L5.54545 11.1136C5.38636 11.4773 5.20455 11.8144 5 12.125C4.79924 12.4356 4.52462 12.6856 4.17614 12.875C3.83144 13.0644 3.36364 13.1591 2.77273 13.1591H2.02273ZM10.251 13V4.27273H13.8192C14.7586 4.27273 15.5048 4.48485 16.0578 4.90909C16.6109 5.33333 16.8874 5.89394 16.8874 6.59091C16.8874 7.12121 16.7302 7.5322 16.4158 7.82386C16.1014 8.11174 15.698 8.30682 15.2056 8.40909C15.5275 8.45455 15.84 8.56818 16.1431 8.75C16.4499 8.93182 16.7037 9.18182 16.9044 9.5C17.1052 9.81439 17.2056 10.2008 17.2056 10.6591C17.2056 11.1061 17.0919 11.5057 16.8647 11.858C16.6374 12.2102 16.3116 12.4886 15.8874 12.6932C15.4631 12.8977 14.9556 13 14.3647 13H10.251ZM11.5238 11.7727H14.3647C14.8268 11.7727 15.1885 11.6629 15.4499 11.4432C15.7113 11.2235 15.8419 10.9242 15.8419 10.5455C15.8419 10.0947 15.7113 9.74053 15.4499 9.48295C15.1885 9.22159 14.8268 9.09091 14.3647 9.09091H11.5238V11.7727ZM11.5238 7.93182H13.8192C14.1791 7.93182 14.4878 7.88258 14.7453 7.78409C15.0029 7.68182 15.1999 7.53788 15.3363 7.35227C15.4764 7.16288 15.5465 6.93939 15.5465 6.68182C15.5465 6.31439 15.3931 6.02651 15.0863 5.81818C14.7794 5.60606 14.3571 5.5 13.8192 5.5H11.5238V7.93182ZM18.9154 13V4.27273H20.2563V13H18.9154ZM19.5972 2.81818C19.3359 2.81818 19.1105 2.72917 18.9211 2.55114C18.7355 2.37311 18.6427 2.15909 18.6427 1.90909C18.6427 1.65909 18.7355 1.44508 18.9211 1.26705C19.1105 1.08902 19.3359 1 19.5972 1C19.8586 1 20.0821 1.08902 20.2677 1.26705C20.4571 1.44508 20.5518 1.65909 20.5518 1.90909C20.5518 2.15909 20.4571 2.37311 20.2677 2.55114C20.0821 2.72917 19.8586 2.81818 19.5972 2.81818ZM23.7332 11.0227L27.9377 4.27273H29.4832V13H28.1423V6.25L23.9605 13H22.3923V4.27273H23.7332V11.0227ZM27.0514 1.36364H28.3014C28.3014 1.97727 28.0892 2.47917 27.665 2.86932C27.2408 3.25947 26.665 3.45455 25.9377 3.45455C25.2218 3.45455 24.6517 3.25947 24.2275 2.86932C23.807 2.47917 23.5968 1.97727 23.5968 1.36364H24.8468C24.8468 1.65909 24.9283 1.91856 25.0911 2.14205C25.2578 2.36553 25.54 2.47727 25.9377 2.47727C26.3355 2.47727 26.6195 2.36553 26.79 2.14205C26.9642 1.91856 27.0514 1.65909 27.0514 1.36364ZM30.6873 15.5V11.75H31.4146C31.5926 11.5644 31.746 11.3636 31.8748 11.1477C32.0036 10.9318 32.1154 10.6761 32.2101 10.3807C32.3085 10.0814 32.3919 9.7178 32.4601 9.28977C32.5282 8.85795 32.5888 8.33712 32.6419 7.72727L32.9373 4.27273H38.4828V11.75H39.8237V15.5H38.4828V13H32.0282V15.5H30.6873ZM32.9373 11.75H37.1419V5.52273H34.1873L33.9601 7.72727C33.8654 8.64015 33.7479 9.4375 33.6078 10.1193C33.4676 10.8011 33.2441 11.3447 32.9373 11.75ZM41.2835 13V4.27273H42.6244V13H41.2835ZM41.9653 2.81818C41.704 2.81818 41.4786 2.72917 41.2892 2.55114C41.1036 2.37311 41.0108 2.15909 41.0108 1.90909C41.0108 1.65909 41.1036 1.44508 41.2892 1.26705C41.4786 1.08902 41.704 1 41.9653 1C42.2267 1 42.4502 1.08902 42.6358 1.26705C42.8252 1.44508 42.9199 1.65909 42.9199 1.90909C42.9199 2.15909 42.8252 2.37311 42.6358 2.55114C42.4502 2.72917 42.2267 2.81818 41.9653 2.81818ZM44.2604 5.52273V4.27273H51.3513V5.52273H48.4877V13H47.1468V5.52273H44.2604ZM54.1464 7.43182H56.6464C57.6691 7.43182 58.4513 7.69129 58.993 8.21023C59.5346 8.72917 59.8055 9.38636 59.8055 10.1818C59.8055 10.7045 59.6842 11.1799 59.4418 11.608C59.1994 12.0322 58.8433 12.3712 58.3736 12.625C57.9039 12.875 57.3282 13 56.6464 13H52.9873V4.27273H54.3282V11.75H56.6464C57.1767 11.75 57.6123 11.6098 57.9532 11.3295C58.2941 11.0492 58.4645 10.6894 58.4645 10.25C58.4645 9.78788 58.2941 9.41098 57.9532 9.11932C57.6123 8.82765 57.1767 8.68182 56.6464 8.68182H54.1464V7.43182ZM100.563 13.1705C99.6918 13.1705 98.9437 12.9792 98.3187 12.5966C97.6975 12.214 97.2183 11.6856 96.8812 11.0114C96.5479 10.3333 96.3812 9.55303 96.3812 8.67045C96.3812 7.78409 96.5516 7.00189 96.8926 6.32386C97.2335 5.64205 97.7145 5.11174 98.3357 4.73295C98.9607 4.35038 99.6994 4.15909 100.552 4.15909C101.26 4.15909 101.887 4.28977 102.432 4.55114C102.982 4.80871 103.419 5.17424 103.745 5.64773C104.071 6.11742 104.256 6.66667 104.302 7.29545H102.336C102.256 6.875 102.067 6.52462 101.768 6.24432C101.472 5.96023 101.076 5.81818 100.58 5.81818C100.16 5.81818 99.7903 5.93182 99.4721 6.15909C99.1539 6.38258 98.9058 6.70455 98.7278 7.125C98.5535 7.54545 98.4664 8.04924 98.4664 8.63636C98.4664 9.23106 98.5535 9.74242 98.7278 10.1705C98.902 10.5947 99.1463 10.9223 99.4607 11.1534C99.7789 11.3807 100.152 11.4943 100.58 11.4943C100.883 11.4943 101.154 11.4375 101.393 11.3239C101.635 11.2064 101.838 11.0379 102.001 10.8182C102.163 10.5985 102.275 10.3314 102.336 10.017H104.302C104.252 10.6345 104.071 11.1818 103.756 11.6591C103.442 12.1326 103.014 12.5038 102.472 12.7727C101.93 13.0379 101.294 13.1705 100.563 13.1705ZM105.037 5.96023V4.27273H112.673V5.96023H109.85V13H107.861V5.96023H105.037ZM113.991 13V4.27273H117.656C118.69 4.27273 119.506 4.47917 120.105 4.89205C120.707 5.30492 121.008 5.88068 121.008 6.61932C121.008 7.10795 120.838 7.50758 120.497 7.81818C120.16 8.125 119.7 8.33144 119.116 8.4375C119.575 8.47538 119.976 8.59091 120.321 8.78409C120.669 8.97727 120.942 9.23106 121.139 9.54545C121.336 9.85985 121.434 10.2216 121.434 10.6307C121.434 11.1117 121.307 11.5303 121.054 11.8864C120.804 12.2386 120.438 12.5133 119.957 12.7102C119.48 12.9034 118.9 13 118.218 13H113.991ZM115.917 11.3807H118.218C118.597 11.3807 118.895 11.2917 119.111 11.1136C119.326 10.9318 119.434 10.6856 119.434 10.375C119.434 10.0152 119.326 9.73295 119.111 9.52841C118.895 9.32008 118.597 9.21591 118.218 9.21591H115.917V11.3807ZM115.917 7.88636H117.696C117.976 7.88636 118.217 7.84659 118.417 7.76705C118.618 7.68371 118.771 7.56818 118.878 7.42045C118.984 7.26894 119.037 7.08901 119.037 6.88068C119.037 6.58144 118.914 6.34659 118.667 6.17614C118.425 6.00568 118.088 5.92045 117.656 5.92045H115.917V7.88636ZM126.619 13.1705C125.766 13.1705 125.028 12.983 124.403 12.608C123.778 12.233 123.293 11.7083 122.948 11.0341C122.607 10.3598 122.437 9.57197 122.437 8.67045C122.437 7.76894 122.607 6.97917 122.948 6.30114C123.293 5.62311 123.778 5.09659 124.403 4.72159C125.028 4.34659 125.766 4.15909 126.619 4.15909C127.471 4.15909 128.21 4.34659 128.835 4.72159C129.46 5.09659 129.942 5.62311 130.283 6.30114C130.628 6.97917 130.8 7.76894 130.8 8.67045C130.8 9.57197 130.628 10.3598 130.283 11.0341C129.942 11.7083 129.46 12.233 128.835 12.608C128.21 12.983 127.471 13.1705 126.619 13.1705ZM126.63 11.5227C127.092 11.5227 127.478 11.3958 127.789 11.142C128.1 10.8845 128.331 10.5398 128.482 10.108C128.638 9.67614 128.715 9.19508 128.715 8.66477C128.715 8.13068 128.638 7.64773 128.482 7.21591C128.331 6.7803 128.1 6.43371 127.789 6.17614C127.478 5.91856 127.092 5.78977 126.63 5.78977C126.157 5.78977 125.763 5.91856 125.448 6.17614C125.138 6.43371 124.905 6.7803 124.749 7.21591C124.598 7.64773 124.522 8.13068 124.522 8.66477C124.522 9.19508 124.598 9.67614 124.749 10.108C124.905 10.5398 125.138 10.8845 125.448 11.142C125.763 11.3958 126.157 11.5227 126.63 11.5227ZM132.226 16.2727V4.27273H134.249V5.71591H134.368C134.474 5.50379 134.624 5.27841 134.817 5.03977C135.01 4.79735 135.272 4.59091 135.601 4.42045C135.931 4.24621 136.351 4.15909 136.863 4.15909C137.537 4.15909 138.145 4.33144 138.686 4.67614C139.232 5.01705 139.664 5.52273 139.982 6.19318C140.304 6.85985 140.465 7.67803 140.465 8.64773C140.465 9.60606 140.308 10.4205 139.993 11.0909C139.679 11.7614 139.251 12.2727 138.709 12.625C138.167 12.9773 137.554 13.1534 136.868 13.1534C136.368 13.1534 135.953 13.0701 135.624 12.9034C135.294 12.7367 135.029 12.536 134.828 12.3011C134.631 12.0625 134.478 11.8371 134.368 11.625H134.283V16.2727H132.226ZM134.243 8.63636C134.243 9.20076 134.323 9.69508 134.482 10.1193C134.645 10.5436 134.878 10.875 135.181 11.1136C135.488 11.3485 135.859 11.4659 136.294 11.4659C136.749 11.4659 137.13 11.3447 137.436 11.1023C137.743 10.8561 137.974 10.5208 138.13 10.0966C138.289 9.66856 138.368 9.18182 138.368 8.63636C138.368 8.0947 138.291 7.61364 138.135 7.19318C137.98 6.77273 137.749 6.44318 137.442 6.20455C137.135 5.96591 136.753 5.84659 136.294 5.84659C135.855 5.84659 135.482 5.96212 135.175 6.19318C134.868 6.42424 134.635 6.74811 134.476 7.16477C134.321 7.58144 134.243 8.07197 134.243 8.63636ZM141.906 13V4.27273H143.963V13H141.906ZM142.94 3.03409C142.615 3.03409 142.334 2.92614 142.099 2.71023C141.865 2.49053 141.747 2.22727 141.747 1.92045C141.747 1.60985 141.865 1.34659 142.099 1.13068C142.334 0.910984 142.615 0.801136 142.94 0.801136C143.27 0.801136 143.55 0.910984 143.781 1.13068C144.016 1.34659 144.133 1.60985 144.133 1.92045C144.133 2.22727 144.016 2.49053 143.781 2.71023C143.55 2.92614 143.27 3.03409 142.94 3.03409ZM145.281 5.96023V4.27273H152.917V5.96023H150.093V13H148.105V5.96023H145.281ZM155.627 7.11364H158.201C159.314 7.11364 160.176 7.38447 160.786 7.92614C161.396 8.4678 161.703 9.17803 161.707 10.0568C161.703 10.6288 161.563 11.1364 161.286 11.5795C161.013 12.0227 160.616 12.3712 160.093 12.625C159.574 12.875 158.943 13 158.201 13H154.235V4.27273H156.218V11.3125H158.201C158.648 11.3125 159.015 11.1989 159.303 10.9716C159.591 10.7405 159.735 10.4451 159.735 10.0852C159.735 9.70644 159.591 9.39773 159.303 9.15909C159.015 8.92045 158.648 8.80114 158.201 8.80114H155.627V7.11364ZM169.309 13.1761C168.756 13.1761 168.258 13.0777 167.815 12.8807C167.376 12.6799 167.027 12.3845 166.77 11.9943C166.516 11.6042 166.389 11.1231 166.389 10.5511C166.389 10.0587 166.48 9.65152 166.662 9.32955C166.844 9.00758 167.092 8.75 167.406 8.55682C167.72 8.36364 168.075 8.2178 168.469 8.11932C168.866 8.01705 169.277 7.94318 169.701 7.89773C170.213 7.8447 170.628 7.79735 170.946 7.75568C171.264 7.71023 171.495 7.64205 171.639 7.55114C171.787 7.45644 171.861 7.31061 171.861 7.11364V7.07955C171.861 6.65152 171.734 6.32008 171.48 6.08523C171.226 5.85038 170.861 5.73295 170.383 5.73295C169.88 5.73295 169.48 5.8428 169.184 6.0625C168.893 6.2822 168.696 6.54167 168.594 6.84091L166.673 6.56818C166.825 6.03788 167.075 5.5947 167.423 5.23864C167.772 4.87879 168.198 4.60985 168.701 4.43182C169.205 4.25 169.762 4.15909 170.372 4.15909C170.792 4.15909 171.211 4.20833 171.628 4.30682C172.044 4.4053 172.425 4.56818 172.77 4.79545C173.114 5.01894 173.391 5.32386 173.599 5.71023C173.811 6.09659 173.917 6.57955 173.917 7.15909V13H171.94V11.8011H171.872C171.747 12.0436 171.571 12.2708 171.344 12.483C171.12 12.6913 170.838 12.8598 170.497 12.9886C170.16 13.1136 169.764 13.1761 169.309 13.1761ZM169.844 11.6648C170.256 11.6648 170.614 11.5833 170.917 11.4205C171.22 11.2538 171.453 11.0341 171.616 10.7614C171.783 10.4886 171.866 10.1913 171.866 9.86932V8.84091C171.802 8.89394 171.692 8.94318 171.537 8.98864C171.385 9.03409 171.215 9.07386 171.025 9.10795C170.836 9.14205 170.648 9.17235 170.463 9.19886C170.277 9.22538 170.116 9.24811 169.98 9.26705C169.673 9.30871 169.398 9.37689 169.156 9.47159C168.914 9.56629 168.722 9.69886 168.582 9.86932C168.442 10.036 168.372 10.2519 168.372 10.517C168.372 10.8958 168.51 11.1818 168.787 11.375C169.063 11.5682 169.415 11.6648 169.844 11.6648ZM175.666 13V4.27273H177.722V7.79545H178.472L181.097 4.27273H183.575L180.342 8.55682L183.609 13H181.12L178.728 9.71023H177.722V13H175.666ZM184.455 13V4.27273H186.512V7.79545H187.262L189.887 4.27273H192.364L189.131 8.55682L192.398 13H189.909L187.517 9.71023H186.512V13H184.455ZM195.756 13.1761C195.203 13.1761 194.705 13.0777 194.261 12.8807C193.822 12.6799 193.473 12.3845 193.216 11.9943C192.962 11.6042 192.835 11.1231 192.835 10.5511C192.835 10.0587 192.926 9.65152 193.108 9.32955C193.29 9.00758 193.538 8.75 193.852 8.55682C194.167 8.36364 194.521 8.2178 194.915 8.11932C195.313 8.01705 195.723 7.94318 196.148 7.89773C196.659 7.8447 197.074 7.79735 197.392 7.75568C197.71 7.71023 197.941 7.64205 198.085 7.55114C198.233 7.45644 198.307 7.31061 198.307 7.11364V7.07955C198.307 6.65152 198.18 6.32008 197.926 6.08523C197.672 5.85038 197.307 5.73295 196.83 5.73295C196.326 5.73295 195.926 5.8428 195.631 6.0625C195.339 6.2822 195.142 6.54167 195.04 6.84091L193.119 6.56818C193.271 6.03788 193.521 5.5947 193.869 5.23864C194.218 4.87879 194.644 4.60985 195.148 4.43182C195.652 4.25 196.208 4.15909 196.818 4.15909C197.239 4.15909 197.657 4.20833 198.074 4.30682C198.491 4.4053 198.871 4.56818 199.216 4.79545C199.561 5.01894 199.837 5.32386 200.045 5.71023C200.258 6.09659 200.364 6.57955 200.364 7.15909V13H198.386V11.8011H198.318C198.193 12.0436 198.017 12.2708 197.79 12.483C197.566 12.6913 197.284 12.8598 196.943 12.9886C196.606 13.1136 196.21 13.1761 195.756 13.1761ZM196.29 11.6648C196.703 11.6648 197.061 11.5833 197.364 11.4205C197.667 11.2538 197.9 11.0341 198.062 10.7614C198.229 10.4886 198.312 10.1913 198.312 9.86932V8.84091C198.248 8.89394 198.138 8.94318 197.983 8.98864C197.831 9.03409 197.661 9.07386 197.472 9.10795C197.282 9.14205 197.095 9.17235 196.909 9.19886C196.723 9.22538 196.563 9.24811 196.426 9.26705C196.119 9.30871 195.845 9.37689 195.602 9.47159C195.36 9.56629 195.169 9.69886 195.028 9.86932C194.888 10.036 194.818 10.2519 194.818 10.517C194.818 10.8958 194.956 11.1818 195.233 11.375C195.509 11.5682 195.862 11.6648 196.29 11.6648ZM203.078 16.2727C202.797 16.2727 202.538 16.25 202.299 16.2045C202.064 16.1629 201.877 16.1136 201.737 16.0568L202.214 14.4545C202.513 14.5417 202.78 14.5833 203.015 14.5795C203.25 14.5758 203.457 14.5019 203.635 14.358C203.816 14.2178 203.97 13.983 204.095 13.6534L204.271 13.1818L201.106 4.27273H203.288L205.299 10.8636H205.39L207.407 4.27273H209.595L206.1 14.0568C205.938 14.5189 205.722 14.9148 205.453 15.2443C205.184 15.5777 204.854 15.8314 204.464 16.0057C204.078 16.1837 203.616 16.2727 203.078 16.2727ZM216.692 7.78409V9.47159H212.045V7.78409H216.692ZM212.681 4.27273V13H210.698V4.27273H212.681ZM218.039 4.27273V13H216.062V4.27273H218.039ZM218.823 5.96023V4.27273H226.459V5.96023H223.635V13H221.647V5.96023H218.823Z" fill="#545F71"/>
<path d="M68.2748 13.2045C67.7218 13.2045 67.2199 13.1004 66.7692 12.892C66.3184 12.6799 65.9604 12.375 65.6953 11.9773C65.4301 11.5758 65.2976 11.0909 65.2976 10.5227C65.2976 10.0227 65.396 9.61742 65.593 9.30682C65.79 8.99242 66.0532 8.74621 66.3828 8.56818C66.7123 8.39015 67.076 8.25758 67.4737 8.17045C67.8752 8.07955 68.2786 8.00758 68.6839 7.95455C69.2142 7.88636 69.6442 7.83523 69.9737 7.80114C70.307 7.76326 70.5495 7.70076 70.701 7.61364C70.8563 7.52652 70.9339 7.375 70.9339 7.15909V7.11364C70.9339 6.55303 70.7805 6.11742 70.4737 5.80682C70.1707 5.49621 69.7104 5.34091 69.093 5.34091C68.4529 5.34091 67.951 5.48106 67.5873 5.76136C67.2237 6.04167 66.968 6.34091 66.8203 6.65909L65.5476 6.20455C65.7748 5.67424 66.0779 5.26136 66.4567 4.96591C66.8392 4.66667 67.2559 4.45833 67.7067 4.34091C68.1612 4.2197 68.6082 4.15909 69.0476 4.15909C69.3279 4.15909 69.6498 4.19318 70.0135 4.26136C70.3809 4.32576 70.7351 4.46023 71.076 4.66477C71.4207 4.86932 71.7067 5.17803 71.9339 5.59091C72.1612 6.00379 72.2748 6.55682 72.2748 7.25V13H70.9339V11.8182H70.8657C70.7748 12.0076 70.6233 12.2102 70.4112 12.4261C70.1991 12.642 69.9169 12.8258 69.5646 12.9773C69.2123 13.1288 68.7824 13.2045 68.2748 13.2045ZM68.4794 12C69.0097 12 69.4567 11.8958 69.8203 11.6875C70.1877 11.4792 70.4642 11.2102 70.6498 10.8807C70.8392 10.5511 70.9339 10.2045 70.9339 9.84091V8.61364C70.8771 8.68182 70.7521 8.74432 70.5589 8.80114C70.3695 8.85417 70.1498 8.90151 69.8998 8.94318C69.6536 8.98106 69.4131 9.01515 69.1782 9.04545C68.9472 9.07197 68.7597 9.0947 68.6157 9.11364C68.2673 9.15909 67.9415 9.23295 67.6385 9.33523C67.3392 9.43371 67.0968 9.58333 66.9112 9.78409C66.7294 9.98106 66.6385 10.25 66.6385 10.5909C66.6385 11.0568 66.8108 11.4091 67.1555 11.6477C67.504 11.8826 67.9453 12 68.4794 12ZM80.8795 1L81.5614 1.81818C81.2962 2.07576 80.9894 2.25568 80.6409 2.35795C80.2924 2.46023 79.8985 2.52273 79.4591 2.54545C79.0197 2.56818 78.5311 2.59091 77.9932 2.61364C77.3871 2.63636 76.8852 2.78409 76.4875 3.05682C76.0898 3.32955 75.783 3.72348 75.567 4.23864C75.3511 4.75379 75.2129 5.38636 75.1523 6.13636H75.2659C75.5614 5.59091 75.9705 5.18939 76.4932 4.93182C77.0159 4.67424 77.5765 4.54545 78.175 4.54545C78.8568 4.54545 79.4705 4.70455 80.0159 5.02273C80.5614 5.34091 80.9932 5.8125 81.3114 6.4375C81.6295 7.0625 81.7886 7.83333 81.7886 8.75C81.7886 9.66288 81.6258 10.4508 81.3 11.1136C80.978 11.7765 80.5254 12.2879 79.942 12.6477C79.3625 13.0038 78.6826 13.1818 77.9023 13.1818C77.122 13.1818 76.4383 12.9981 75.8511 12.6307C75.264 12.2595 74.8076 11.7102 74.4818 10.983C74.1561 10.2519 73.9932 9.34848 73.9932 8.27273V7.34091C73.9932 5.39773 74.3227 3.92424 74.9818 2.92045C75.6447 1.91667 76.6409 1.39773 77.9705 1.36364C78.4402 1.34848 78.8587 1.3447 79.2261 1.35227C79.5936 1.35985 79.9136 1.3428 80.1864 1.30114C80.4591 1.25947 80.6902 1.15909 80.8795 1ZM77.9023 11.9773C78.4288 11.9773 78.8814 11.8447 79.2602 11.5795C79.6428 11.3144 79.9364 10.9413 80.1409 10.4602C80.3455 9.97538 80.4477 9.4053 80.4477 8.75C80.4477 8.11364 80.3436 7.57197 80.1352 7.125C79.9307 6.67803 79.6371 6.33712 79.2545 6.10227C78.872 5.86742 78.4136 5.75 77.8795 5.75C77.4894 5.75 77.139 5.81629 76.8284 5.94886C76.5178 6.08144 76.2527 6.27651 76.033 6.53409C75.8133 6.79167 75.6428 7.10606 75.5216 7.47727C75.4042 7.84848 75.3417 8.27273 75.3341 8.75C75.3341 9.72727 75.5633 10.5095 76.0216 11.0966C76.4799 11.6837 77.1068 11.9773 77.9023 11.9773ZM87.0652 13.1818C86.2774 13.1818 85.5861 12.9943 84.9914 12.6193C84.4005 12.2443 83.9383 11.7197 83.605 11.0455C83.2755 10.3712 83.1107 9.58333 83.1107 8.68182C83.1107 7.77273 83.2755 6.97917 83.605 6.30114C83.9383 5.62311 84.4005 5.09659 84.9914 4.72159C85.5861 4.34659 86.2774 4.15909 87.0652 4.15909C87.8531 4.15909 88.5425 4.34659 89.1334 4.72159C89.7281 5.09659 90.1902 5.62311 90.5198 6.30114C90.8531 6.97917 91.0198 7.77273 91.0198 8.68182C91.0198 9.58333 90.8531 10.3712 90.5198 11.0455C90.1902 11.7197 89.7281 12.2443 89.1334 12.6193C88.5425 12.9943 87.8531 13.1818 87.0652 13.1818ZM87.0652 11.9773C87.6637 11.9773 88.1561 11.8239 88.5425 11.517C88.9289 11.2102 89.2149 10.8068 89.4005 10.3068C89.5861 9.80682 89.6789 9.26515 89.6789 8.68182C89.6789 8.09848 89.5861 7.55492 89.4005 7.05114C89.2149 6.54735 88.9289 6.14015 88.5425 5.82955C88.1561 5.51894 87.6637 5.36364 87.0652 5.36364C86.4667 5.36364 85.9743 5.51894 85.588 5.82955C85.2016 6.14015 84.9156 6.54735 84.73 7.05114C84.5444 7.55492 84.4516 8.09848 84.4516 8.68182C84.4516 9.26515 84.5444 9.80682 84.73 10.3068C84.9156 10.8068 85.2016 11.2102 85.588 11.517C85.9743 11.8239 86.4667 11.9773 87.0652 11.9773Z" fill="#80F988"/>
<path d="M95.6994 16.1818H227.044V17.2727H95.6994V16.1818Z" fill="#545F71"/>
</svg>
