<svg width="181" height="52" viewBox="0 0 181 52" fill="none" xmlns="http://www.w3.org/2000/svg">
<path d="M21.8026 13.0582C21.6548 11.5687 21.0208 10.4115 19.9006 9.58665C18.7803 8.76184 17.2599 8.34943 15.3395 8.34943C14.0346 8.34943 12.9328 8.53409 12.0341 8.90341C11.1354 9.26042 10.446 9.759 9.96591 10.3991C9.49811 11.0393 9.26421 11.7656 9.26421 12.5781C9.23958 13.2552 9.38116 13.8461 9.68892 14.3509C10.009 14.8556 10.446 15.2926 11 15.6619C11.554 16.0189 12.1941 16.3329 12.9205 16.6037C13.6468 16.8622 14.4223 17.0838 15.2472 17.2685L18.6449 18.081C20.2945 18.4503 21.8087 18.9427 23.1875 19.5582C24.5663 20.1738 25.7604 20.9309 26.7699 21.8295C27.7794 22.7282 28.5611 23.7869 29.1151 25.0057C29.6813 26.2244 29.9706 27.6217 29.983 29.1974C29.9706 31.5118 29.3797 33.5185 28.2102 35.2173C27.053 36.9039 25.3788 38.215 23.1875 39.1506C21.0085 40.0739 18.3802 40.5355 15.3026 40.5355C12.2495 40.5355 9.59044 40.0677 7.32528 39.1321C5.07244 38.1965 3.31203 36.8116 2.04403 34.9773C0.788352 33.1307 0.129735 30.8471 0.0681818 28.1264H7.8054C7.89157 29.3944 8.25474 30.4531 8.89489 31.3026C9.54735 32.1397 10.4152 32.7737 11.4986 33.2045C12.5942 33.6231 13.8314 33.8324 15.2102 33.8324C16.5644 33.8324 17.7401 33.6354 18.7372 33.2415C19.7467 32.8475 20.5284 32.2997 21.0824 31.598C21.6364 30.8963 21.9134 30.09 21.9134 29.179C21.9134 28.3295 21.661 27.6155 21.1562 27.0369C20.6638 26.4583 19.9375 25.9659 18.9773 25.5597C18.0294 25.1534 16.866 24.7841 15.4872 24.4517L11.3693 23.4176C8.18087 22.642 5.66335 21.4295 3.81676 19.7798C1.97017 18.1302 1.05303 15.9081 1.06534 13.1136C1.05303 10.8239 1.66241 8.82339 2.89347 7.11222C4.13684 5.40104 5.84186 4.06534 8.00852 3.10511C10.1752 2.14489 12.6373 1.66477 15.3949 1.66477C18.2017 1.66477 20.6515 2.14489 22.7443 3.10511C24.8494 4.06534 26.4867 5.40104 27.6562 7.11222C28.8258 8.82339 29.429 10.8054 29.4659 13.0582H21.8026ZM34.1734 40V11.6364H42.0399V40H34.1734ZM38.1251 7.98011C36.9556 7.98011 35.9523 7.59233 35.1152 6.81676C34.2904 6.02888 33.878 5.08712 33.878 3.99148C33.878 2.90814 34.2904 1.97869 35.1152 1.20312C35.9523 0.415245 36.9556 0.0213048 38.1251 0.0213048C39.2946 0.0213048 40.2918 0.415245 41.1166 1.20312C41.9537 1.97869 42.3723 2.90814 42.3723 3.99148C42.3723 5.08712 41.9537 6.02888 41.1166 6.81676C40.2918 7.59233 39.2946 7.98011 38.1251 7.98011ZM60.0798 51.2273C57.5315 51.2273 55.3464 50.8764 53.5244 50.1747C51.7147 49.4853 50.2744 48.5436 49.2034 47.3494C48.1324 46.1553 47.4368 44.8134 47.1167 43.3239L54.3923 42.3452C54.6139 42.9115 54.9647 43.4408 55.4449 43.9332C55.925 44.4257 56.559 44.8196 57.3468 45.1151C58.147 45.4228 59.1196 45.5767 60.2645 45.5767C61.9756 45.5767 63.3852 45.1581 64.4932 44.321C65.6134 43.4962 66.1736 42.1113 66.1736 40.1662V34.9773H65.8412C65.4965 35.7652 64.9794 36.5099 64.29 37.2116C63.6006 37.9134 62.7143 38.4858 61.6309 38.929C60.5476 39.3722 59.255 39.5938 57.7531 39.5938C55.6234 39.5938 53.6844 39.1013 51.9363 38.1165C50.2005 37.1193 48.8156 35.599 47.7815 33.5554C46.7597 31.4995 46.2488 28.902 46.2488 25.7628C46.2488 22.5497 46.772 19.866 47.8184 17.7116C48.8648 15.5573 50.2559 13.9446 51.9917 12.8736C53.7398 11.8026 55.6541 11.267 57.7346 11.267C59.3227 11.267 60.6522 11.5379 61.7233 12.0795C62.7943 12.6089 63.656 13.2737 64.3085 14.0739C64.9733 14.8617 65.4842 15.6373 65.8412 16.4006H66.1366V11.6364H73.9477V40.277C73.9477 42.6899 73.3568 44.7088 72.175 46.3338C70.9932 47.9588 69.3558 49.1776 67.263 49.9901C65.1825 50.8149 62.7881 51.2273 60.0798 51.2273ZM60.246 33.6847C61.514 33.6847 62.585 33.3707 63.4591 32.7429C64.3454 32.1027 65.0225 31.1918 65.4903 30.0099C65.9704 28.8158 66.2105 27.3878 66.2105 25.7259C66.2105 24.0639 65.9766 22.6236 65.5088 21.4048C65.041 20.1738 64.3639 19.2197 63.4775 18.5426C62.5912 17.8655 61.514 17.527 60.246 17.527C58.9534 17.527 57.8639 17.8778 56.9775 18.5795C56.0912 19.2689 55.4202 20.2292 54.9647 21.4602C54.5093 22.6913 54.2815 24.1132 54.2815 25.7259C54.2815 27.3632 54.5093 28.7789 54.9647 29.973C55.4325 31.1548 56.1035 32.072 56.9775 32.7244C57.8639 33.3646 58.9534 33.6847 60.246 33.6847ZM87.0341 23.6023V40H79.1676V11.6364H86.6648V16.6406H86.9972C87.625 14.991 88.6776 13.6861 90.1549 12.7259C91.6321 11.7533 93.4233 11.267 95.5284 11.267C97.4981 11.267 99.2155 11.6979 100.68 12.5597C102.145 13.4214 103.284 14.6525 104.097 16.2528C104.909 17.8409 105.315 19.7367 105.315 21.9403V40H97.4489V23.3438C97.4612 21.608 97.018 20.2538 96.1193 19.2812C95.2207 18.2964 93.9835 17.804 92.4077 17.804C91.349 17.804 90.4134 18.0317 89.6009 18.4872C88.8007 18.9427 88.1728 19.6075 87.7174 20.4815C87.2742 21.3433 87.0464 22.3835 87.0341 23.6023Z" fill="#F7F8FA"/>
<path d="M139.659 27.9233V11.6364H147.526V40H139.973V34.848H139.678C139.038 36.5099 137.973 37.8456 136.483 38.8551C135.006 39.8646 133.202 40.3693 131.073 40.3693C129.177 40.3693 127.509 39.9384 126.068 39.0767C124.628 38.215 123.502 36.9901 122.689 35.402C121.889 33.8139 121.483 31.9119 121.47 29.696V11.6364H129.337V28.2926C129.349 29.9669 129.799 31.2902 130.685 32.2628C131.571 33.2353 132.759 33.7216 134.249 33.7216C135.197 33.7216 136.083 33.5062 136.908 33.0753C137.733 32.6321 138.398 31.9796 138.902 31.1179C139.419 30.2562 139.672 29.1913 139.659 27.9233ZM152.778 50.6364V11.6364H160.534V16.4006H160.885C161.229 15.6373 161.728 14.8617 162.38 14.0739C163.045 13.2737 163.907 12.6089 164.966 12.0795C166.037 11.5379 167.366 11.267 168.954 11.267C171.022 11.267 172.931 11.8087 174.679 12.892C176.427 13.9631 177.824 15.5819 178.87 17.7486C179.917 19.9029 180.44 22.6051 180.44 25.8551C180.44 29.0189 179.929 31.6903 178.907 33.8693C177.898 36.036 176.519 37.6795 174.771 38.7997C173.035 39.9077 171.09 40.4616 168.936 40.4616C167.409 40.4616 166.11 40.2093 165.039 39.7045C163.981 39.1998 163.113 38.5658 162.436 37.8026C161.759 37.027 161.242 36.2453 160.885 35.4574H160.645V50.6364H152.778ZM160.478 25.8182C160.478 27.5047 160.712 28.9759 161.18 30.2315C161.648 31.4872 162.325 32.4659 163.211 33.1676C164.098 33.857 165.175 34.2017 166.443 34.2017C167.723 34.2017 168.807 33.8509 169.693 33.1491C170.579 32.4351 171.25 31.4503 171.706 30.1946C172.173 28.9266 172.407 27.4678 172.407 25.8182C172.407 24.1809 172.18 22.7405 171.724 21.4972C171.269 20.2538 170.598 19.2812 169.711 18.5795C168.825 17.8778 167.735 17.527 166.443 17.527C165.163 17.527 164.079 17.8655 163.193 18.5426C162.319 19.2197 161.648 20.1799 161.18 21.4233C160.712 22.6667 160.478 24.1316 160.478 25.8182Z" fill="#80F988"/>
</svg>
